<svg width="64" height="65" viewBox="0 0 64 65" fill="none" xmlns="http://www.w3.org/2000/svg">
    <path
        d="M49.5998 33.5459V31.0979L52.6718 28.4099C53.2381 27.9108 53.6097 27.2275 53.721 26.4809C53.8322 25.7343 53.676 24.9724 53.2798 24.3299L49.5038 17.9299C49.2233 17.4439 48.8198 17.0403 48.334 16.7594C47.8481 16.4786 47.297 16.3305 46.7358 16.3299C46.3881 16.3272 46.0422 16.3813 45.7118 16.4899L41.8238 17.8019C41.1526 17.3558 40.4524 16.955 39.7278 16.6019L38.9118 12.5699C38.7655 11.8333 38.3648 11.1716 37.7798 10.7006C37.1947 10.2297 36.4627 9.97951 35.7118 9.9939H28.2238C27.473 9.97951 26.7409 10.2297 26.1559 10.7006C25.5709 11.1716 25.1702 11.8333 25.0238 12.5699L24.2078 16.6019C23.4781 16.9549 22.7726 17.3557 22.0958 17.8019L18.2878 16.4259C17.9539 16.3389 17.6081 16.3065 17.2638 16.3299C16.7027 16.3305 16.1515 16.4786 15.6657 16.7594C15.1799 17.0403 14.7764 17.4439 14.4958 17.9299L10.7198 24.3299C10.3464 24.9715 10.2076 25.723 10.3273 26.4556C10.447 27.1883 10.8176 27.8565 11.3758 28.3459L14.3998 31.1139V33.5619L11.3758 36.2499C10.8019 36.7427 10.4211 37.4229 10.301 38.1698C10.1809 38.9167 10.3293 39.682 10.7198 40.3299L14.4958 46.7299C14.7764 47.2159 15.1799 47.6195 15.6657 47.9004C16.1515 48.1812 16.7027 48.3293 17.2638 48.3299C17.6116 48.3326 17.9575 48.2785 18.2878 48.1699L22.1758 46.8579C22.8471 47.304 23.5473 47.7049 24.2718 48.0579L25.0878 52.0899C25.2342 52.8265 25.6349 53.4882 26.2199 53.9592C26.8049 54.4301 27.537 54.6803 28.2878 54.6659H35.8398C36.5907 54.6803 37.3227 54.4301 37.9078 53.9592C38.4928 53.4882 38.8935 52.8265 39.0398 52.0899L39.8558 48.0579C40.5855 47.7049 41.2911 47.3041 41.9678 46.8579L45.8398 48.1699C46.1702 48.2785 46.5161 48.3326 46.8638 48.3299C47.425 48.3293 47.9761 48.1812 48.462 47.9004C48.9478 47.6195 49.3513 47.2159 49.6318 46.7299L53.2798 40.3299C53.6533 39.6883 53.7921 38.9369 53.6724 38.2042C53.5527 37.4716 53.182 36.8033 52.6238 36.3139L49.5998 33.5459ZM46.7358 45.1299L41.2478 43.2739C39.9631 44.3621 38.4949 45.2127 36.9118 45.7859L35.7758 51.5299H28.2238L27.0878 45.8499C25.5173 45.2604 24.057 44.4113 22.7678 43.3379L17.2638 45.1299L13.4878 38.7299L17.8398 34.8899C17.544 33.2337 17.544 31.5381 17.8398 29.8819L13.4878 25.9299L17.2638 19.5299L22.7518 21.3859C24.0365 20.2977 25.5048 19.4471 27.0878 18.8739L28.2238 13.1299H35.7758L36.9118 18.8099C38.4824 19.3994 39.9427 20.2485 41.2318 21.3219L46.7358 19.5299L50.5118 25.9299L46.1598 29.7699C46.4557 31.4261 46.4557 33.1217 46.1598 34.7779L50.5118 38.7299L46.7358 45.1299Z"
        fill="currentColor" />
    <path
        d="M31.9999 41.9299C30.1012 41.9299 28.2451 41.3669 26.6664 40.312C25.0877 39.2571 23.8573 37.7578 23.1307 36.0037C22.4041 34.2495 22.2139 32.3192 22.5844 30.457C22.9548 28.5948 23.8691 26.8843 25.2117 25.5417C26.5543 24.1991 28.2648 23.2848 30.127 22.9144C31.9893 22.5439 33.9195 22.734 35.6737 23.4606C37.4278 24.1873 38.9272 25.4177 39.982 26.9964C41.0369 28.5751 41.5999 30.4312 41.5999 32.3299C41.6127 33.5942 41.3732 34.8483 40.8953 36.0188C40.4174 37.1893 39.7108 38.2527 38.8167 39.1467C37.9227 40.0407 36.8593 40.7474 35.6888 41.2253C34.5183 41.7032 33.2642 41.9427 31.9999 41.9299ZM31.9999 25.9299C31.1541 25.9102 30.313 26.0623 29.5276 26.3769C28.7422 26.6916 28.0288 27.1623 27.4305 27.7605C26.8323 28.3588 26.3616 29.0722 26.0469 29.8576C25.7323 30.643 25.5802 31.484 25.5999 32.3299C25.5802 33.1757 25.7323 34.0168 26.0469 34.8022C26.3616 35.5876 26.8323 36.301 27.4305 36.8992C28.0288 37.4975 28.7422 37.9682 29.5276 38.2829C30.313 38.5975 31.1541 38.7496 31.9999 38.7299C32.8458 38.7496 33.6868 38.5975 34.4722 38.2829C35.2576 37.9682 35.971 37.4975 36.5693 36.8992C37.1675 36.301 37.6382 35.5876 37.9529 34.8022C38.2675 34.0168 38.4196 33.1757 38.3999 32.3299C38.4196 31.484 38.2675 30.643 37.9529 29.8576C37.6382 29.0722 37.1675 28.3588 36.5693 27.7605C35.971 27.1623 35.2576 26.6916 34.4722 26.3769C33.6868 26.0623 32.8458 25.9102 31.9999 25.9299Z"
        fill="currentColor" />
</svg>