<svg width="64" height="65" viewBox="0 0 64 65" fill="none" xmlns="http://www.w3.org/2000/svg">
    <path fill-rule="evenodd" clip-rule="evenodd"
        d="M46.8372 9.39658C45.9134 9.39658 45.0665 9.39658 44.3796 9.48831C43.6201 9.59071 42.8201 9.82964 42.1609 10.491C41.4996 11.1502 41.2606 11.9502 41.1582 12.7096C41.0665 13.3987 41.0665 14.2456 41.0665 15.1672V43.0926C41.0665 44.0163 41.0665 44.8632 41.1582 45.5502C41.2606 46.3096 41.4996 47.1096 42.1609 47.7688C42.8201 48.4302 43.6201 48.6691 44.3796 48.7715C45.0686 48.8632 45.9156 48.8632 46.8372 48.8632H47.0292C47.9529 48.8632 48.7998 48.8632 49.4868 48.7715C50.2462 48.6691 51.0462 48.4302 51.7054 47.7688C52.3668 47.1096 52.6057 46.3096 52.7081 45.5502C52.7998 44.8611 52.7998 44.0142 52.7998 43.0926V15.1672C52.7998 14.2435 52.7998 13.3966 52.7081 12.7096C52.6057 11.9502 52.3668 11.1502 51.7054 10.491C51.0462 9.82964 50.2462 9.59071 49.4868 9.48831C48.7977 9.39658 47.9508 9.39658 47.0292 9.39658H46.8372ZM44.4265 12.7502L44.4222 12.7523L44.4201 12.7587C44.374 12.8802 44.3439 13.0071 44.3305 13.1363C44.2708 13.5843 44.2665 14.2115 44.2665 15.2632V42.9966C44.2665 44.0483 44.2708 44.6755 44.3305 45.1235C44.3439 45.2527 44.374 45.3797 44.4201 45.5011L44.4222 45.5075L44.4286 45.5096L44.435 45.5139L44.45 45.5203C44.4969 45.5395 44.5993 45.5715 44.8062 45.5992C45.2542 45.659 45.8814 45.6632 46.9332 45.6632C47.9849 45.6632 48.6121 45.659 49.0601 45.5992C49.1893 45.5859 49.3162 45.5558 49.4377 45.5096L49.4441 45.5075L49.4462 45.5011C49.4923 45.3797 49.5225 45.2527 49.5358 45.1235C49.5956 44.6755 49.5998 44.0483 49.5998 42.9966V15.2632C49.5998 14.2115 49.5956 13.5843 49.5358 13.1363C49.5224 13.0071 49.4923 12.8802 49.4462 12.7587L49.4441 12.7523L49.4377 12.7502C49.3162 12.7041 49.1893 12.674 49.0601 12.6606C48.6121 12.6008 47.9849 12.5966 46.9332 12.5966C45.8814 12.5966 45.2542 12.6008 44.8062 12.6606C44.677 12.674 44.548 12.7041 44.4265 12.7502ZM31.9038 15.7966H32.0958C33.0196 15.7966 33.8665 15.7966 34.5534 15.8883C35.3129 15.9907 36.1129 16.2296 36.7721 16.891C37.4334 17.5502 37.6724 18.3502 37.7748 19.1096C37.8665 19.7987 37.8665 20.6456 37.8665 21.5672V43.0926C37.8665 44.0163 37.8665 44.8632 37.7748 45.5502C37.6724 46.3096 37.4334 47.1096 36.7721 47.7688C36.1129 48.4302 35.3129 48.6691 34.5534 48.7715C33.8644 48.8632 33.0174 48.8632 32.0958 48.8632H31.9038C30.9822 48.8632 30.1332 48.8632 29.4462 48.7715C28.6868 48.6691 27.8868 48.4302 27.2276 47.7688C26.5662 47.1096 26.3273 46.3096 26.2249 45.5502C26.1332 44.8611 26.1332 44.0142 26.1332 43.0926V21.5672C26.1332 20.6435 26.1332 19.7966 26.2249 19.1096C26.3273 18.3502 26.5662 17.5502 27.2276 16.891C27.8868 16.2296 28.6868 15.9907 29.4462 15.8883C30.1353 15.7966 30.9822 15.7966 31.9038 15.7966ZM29.4889 19.1523L29.4953 19.1502L29.4889 45.5075L29.4868 45.5011C29.4406 45.3797 29.4105 45.2527 29.3972 45.1235C29.3374 44.6755 29.3332 44.0483 29.3332 42.9966V21.6632C29.3332 20.6115 29.3374 19.9843 29.3972 19.5363C29.4105 19.4071 29.4407 19.2802 29.4868 19.1587L29.4889 19.1523ZM29.4889 45.5075L29.4953 19.1502L29.5017 19.1459L29.5166 19.1395C29.6317 19.0988 29.7514 19.0723 29.8729 19.0606C30.3209 19.0008 30.9481 18.9966 31.9998 18.9966C33.0516 18.9966 33.6788 19.0008 34.1268 19.0606C34.256 19.074 34.3829 19.1041 34.5044 19.1502L34.5108 19.1523L34.5129 19.1587C34.559 19.2802 34.5891 19.4071 34.6025 19.5363C34.6622 19.9843 34.6665 20.6115 34.6665 21.6632V42.9966C34.6665 44.0483 34.6622 44.6755 34.6025 45.1235C34.5891 45.2527 34.559 45.3797 34.5129 45.5011L34.5108 45.5075L34.5044 45.5096C34.4975 45.5137 34.4904 45.5173 34.483 45.5203C34.3679 45.561 34.2483 45.5876 34.1268 45.5992C33.6788 45.659 33.0516 45.6632 31.9998 45.6632C30.9481 45.6632 30.3209 45.659 29.8729 45.5992C29.7437 45.5859 29.6168 45.5557 29.4953 45.5096L29.4889 45.5075ZM16.9705 24.3299C16.0468 24.3299 15.1998 24.3299 14.5129 24.4216C13.7534 24.524 12.9534 24.763 12.2942 25.4243C11.6329 26.0835 11.394 26.8835 11.2916 27.643C11.1998 28.332 11.1998 29.179 11.1998 30.1006V43.0926C11.1998 44.0163 11.1998 44.8632 11.2916 45.5502C11.394 46.3096 11.6329 47.1096 12.2942 47.7688C12.9534 48.4302 13.7534 48.6691 14.5129 48.7715C15.202 48.8632 16.0489 48.8632 16.9705 48.8632H17.1625C18.0862 48.8632 18.9332 48.8632 19.6201 48.7715C20.3796 48.6691 21.1796 48.4302 21.8388 47.7688C22.5001 47.1096 22.739 46.3096 22.8414 45.5502C22.9332 44.8611 22.9332 44.0142 22.9332 43.0926V30.1006C22.9332 29.1768 22.9332 28.3299 22.8414 27.643C22.739 26.8835 22.5001 26.0835 21.8388 25.4243C21.1796 24.763 20.3796 24.524 19.6201 24.4216C18.931 24.3299 18.0841 24.3299 17.1625 24.3299H16.9705ZM14.5598 27.6835L14.5556 27.6856L14.5534 27.692C14.5074 27.8135 14.4773 27.9404 14.4638 28.0696C14.4041 28.5176 14.3998 29.1448 14.3998 30.1966V42.9966C14.3998 44.0483 14.4041 44.6755 14.4638 45.1235C14.4772 45.2527 14.5074 45.3797 14.5534 45.5011V45.5054L14.562 45.5096C14.6834 45.5557 14.8103 45.5859 14.9396 45.5992C15.3876 45.659 16.0148 45.6632 17.0665 45.6632C18.1182 45.6632 18.7454 45.659 19.1934 45.5992C19.3226 45.5859 19.4496 45.5557 19.571 45.5096L19.5774 45.5075L19.5796 45.5011L19.5838 45.4926L19.5902 45.4798C19.6309 45.3647 19.6574 45.245 19.6692 45.1235C19.7289 44.6755 19.7332 44.0483 19.7332 42.9966V30.1966C19.7332 29.1448 19.7289 28.5176 19.6692 28.0696C19.6557 27.9404 19.6256 27.8135 19.5796 27.692L19.5774 27.6856L19.571 27.6835C19.4496 27.6375 19.3226 27.6073 19.1934 27.5939C18.7454 27.5342 18.1182 27.5299 17.0665 27.5299C16.0148 27.5299 15.3876 27.5342 14.9396 27.5939C14.8104 27.6073 14.6813 27.6375 14.5598 27.6835Z"
        fill="currentColor" />
    <path
        d="M12.7998 52.0632C12.3755 52.0632 11.9685 52.2318 11.6685 52.5319C11.3684 52.8319 11.1998 53.2389 11.1998 53.6632C11.1998 54.0876 11.3684 54.4945 11.6685 54.7946C11.9685 55.0947 12.3755 55.2632 12.7998 55.2632H51.1998C51.6242 55.2632 52.0311 55.0947 52.3312 54.7946C52.6313 54.4945 52.7998 54.0876 52.7998 53.6632C52.7998 53.2389 52.6313 52.8319 52.3312 52.5319C52.0311 52.2318 51.6242 52.0632 51.1998 52.0632H12.7998Z"
        fill="currentColor" />
</svg>