<svg width="64" height="64" viewBox="0 0 64 64" fill="none" xmlns="http://www.w3.org/2000/svg">
    <path fill-rule="evenodd" clip-rule="evenodd"
        d="M31.9999 10.7688C31.1955 10.7688 30.4241 11.0883 29.8553 11.6572C29.2865 12.226 28.9669 12.9974 28.9669 13.8018V14.1051C25.5415 14.8043 22.4629 16.6655 20.2521 19.3738C18.0413 22.082 16.8341 25.4709 16.8348 28.9669V41.099L13.18 45.1269C11.4118 47.0771 12.7948 50.1981 15.4245 50.1981H26.7467C27.2792 51.1202 28.0449 51.8859 28.967 52.4182C29.8892 52.9506 30.9352 53.2309 31.9999 53.2309C33.0647 53.2309 34.1107 52.9506 35.0328 52.4182C35.9549 51.8859 36.7207 51.1202 37.2531 50.1981H48.5754C51.205 50.1981 52.5881 47.0741 50.8198 45.1269L47.165 41.099V28.9669C47.1658 25.4709 45.9586 22.082 43.7478 19.3738C41.537 16.6655 38.4583 14.8043 35.033 14.1051V13.8018C35.033 12.9974 34.7134 12.226 34.1446 11.6572C33.5758 11.0883 32.8043 10.7688 31.9999 10.7688ZM21.3844 42.8582L20.2015 44.1563L18.8487 45.6486H45.1511L43.7954 44.1563L42.6155 42.8551V28.9669C42.6155 27.5729 42.3409 26.1925 41.8074 24.9045C41.274 23.6166 40.492 22.4463 39.5063 21.4606C38.5205 20.4748 37.3503 19.6929 36.0623 19.1594C34.7744 18.6259 33.394 18.3514 31.9999 18.3514C30.6059 18.3514 29.2255 18.6259 27.9375 19.1594C26.6496 19.6929 25.4793 20.4748 24.4936 21.4606C23.5078 22.4463 22.7259 23.6166 22.1924 24.9045C21.6589 26.1925 21.3844 27.5729 21.3844 28.9669V42.8582Z"
        fill="currentColor" />
</svg>