<svg width="64" height="65" viewBox="0 0 64 65" fill="none" xmlns="http://www.w3.org/2000/svg">
    <g clip-path="url(#clip0_2593_210)">
        <path
            d="M23.467 47.2633C24.5986 47.2633 25.6838 46.8137 26.484 46.0136C27.2841 45.2134 27.7336 44.1282 27.7336 42.9966C27.7336 41.865 27.2841 40.7798 26.484 39.9796C25.6838 39.1795 24.5986 38.7299 23.467 38.7299C22.3354 38.7299 21.2501 39.1795 20.45 39.9796C19.6498 40.7798 19.2003 41.865 19.2003 42.9966C19.2003 44.1282 19.6498 45.2134 20.45 46.0136C21.2501 46.8137 22.3354 47.2633 23.467 47.2633ZM44.8003 47.2633C45.9319 47.2633 47.0171 46.8137 47.8173 46.0136C48.6175 45.2134 49.067 44.1282 49.067 42.9966C49.067 41.865 48.6175 40.7798 47.8173 39.9796C47.0171 39.1795 45.9319 38.7299 44.8003 38.7299C43.6687 38.7299 42.5835 39.1795 41.7833 39.9796C40.9832 40.7798 40.5336 41.865 40.5336 42.9966C40.5336 44.1282 40.9832 45.2134 41.7833 46.0136C42.5835 46.8137 43.6687 47.2633 44.8003 47.2633Z"
            stroke="currentColor" stroke-width="3.2" stroke-miterlimit="1.5" stroke-linecap="round"
            stroke-linejoin="round" />
        <path
            d="M27.8404 42.9966H38.4004V20.8099C38.4004 20.4705 38.2655 20.1449 38.0255 19.9048C37.7854 19.6648 37.4598 19.5299 37.1204 19.5299H8.53369M18.4537 42.9966H14.0804C13.9123 42.9966 13.7458 42.9635 13.5905 42.8992C13.4352 42.8348 13.2941 42.7406 13.1753 42.6217C13.0564 42.5028 12.9621 42.3617 12.8978 42.2064C12.8335 42.0511 12.8004 41.8847 12.8004 41.7166V31.2633"
            stroke="currentColor" stroke-width="3.2" stroke-linecap="round" />
        <path d="M10.6671 25.9299H19.2004" stroke="currentColor" stroke-width="3.2"
            stroke-linecap="round" stroke-linejoin="round" />
        <path
            d="M38.4005 25.9299H50.3685C50.6159 25.93 50.858 26.0018 51.0655 26.1365C51.273 26.2713 51.437 26.4634 51.5376 26.6894L55.3562 35.2825C55.429 35.4456 55.4668 35.6222 55.4672 35.8009V41.7166C55.4672 41.8847 55.4341 42.0511 55.3697 42.2064C55.3054 42.3617 55.2111 42.5028 55.0923 42.6217C54.9734 42.7406 54.8323 42.8348 54.677 42.8992C54.5217 42.9635 54.3553 42.9966 54.1872 42.9966H50.1338M38.4005 42.9966H40.5338"
            stroke="currentColor" stroke-width="3.2" stroke-linecap="round" />
    </g>
    <defs>
        <clipPath id="clip0_2593_210">
            <rect width="51.2" height="51.2" fill="white" transform="translate(6.40002 6.72993)" />
        </clipPath>
    </defs>
</svg>