<svg width="64" height="65" viewBox="0 0 64 65" fill="none" xmlns="http://www.w3.org/2000/svg">
    <path
        d="M8.53369 53.6633C8.53369 54.8153 9.49369 55.7966 10.667 55.7966H38.4004C39.595 55.7966 40.5337 54.8153 40.5337 53.6633V51.5299H8.53369V53.6633ZM24.5337 25.9299C16.5337 25.9299 8.53369 30.1966 8.53369 38.7299H40.5337C40.5337 30.1966 32.5337 25.9299 24.5337 25.9299ZM14.123 34.4633C16.491 31.1566 21.5257 30.1966 24.5337 30.1966C27.5417 30.1966 32.5764 31.1566 34.9444 34.4633H14.123ZM8.53369 42.9966H40.5337V47.2633H8.53369V42.9966ZM44.8004 17.3966V8.86327H40.5337V17.3966H29.867L30.3577 21.6633H50.7524L47.7657 51.5299H44.8004V55.7966H48.4697C50.2617 55.7966 51.7337 54.4099 51.947 52.6606L55.467 17.3966H44.8004Z"
        fill="currentColor" />
</svg>