<svg width="64" height="65" viewBox="0 0 64 65" fill="none" xmlns="http://www.w3.org/2000/svg">
    <path
        d="M24.3586 45.1299H14.4002C13.9759 45.1299 13.5689 44.9613 13.2689 44.6613C12.9688 44.3612 12.8002 43.9542 12.8002 43.5299V16.3299H9.60024C9.1759 16.3299 8.76893 16.1613 8.46887 15.8613C8.16882 15.5612 8.00024 15.1542 8.00024 14.7299C8.00024 14.3055 8.16882 13.8986 8.46887 13.5985C8.76893 13.2985 9.1759 13.1299 9.60024 13.1299H54.4002C54.8246 13.1299 55.2316 13.2985 55.5316 13.5985C55.8317 13.8986 56.0002 14.3055 56.0002 14.7299C56.0002 15.1542 55.8317 15.5612 55.5316 15.8613C55.2316 16.1613 54.8246 16.3299 54.4002 16.3299H51.2002V43.5299C51.2002 43.9542 51.0317 44.3612 50.7316 44.6613C50.4316 44.9613 50.0246 45.1299 49.6002 45.1299H39.661L45.2034 54.7299H41.5106L35.9682 45.1299H28.0514L22.509 54.7299H18.8162L24.3586 45.1299ZM48.0002 16.3299H16.0002V41.9299H48.0002V16.3299ZM23.533 33.4627C23.3843 33.6115 23.2077 33.7295 23.0133 33.81C22.8189 33.8905 22.6106 33.9319 22.4002 33.9319C22.1899 33.9319 21.9815 33.8905 21.7872 33.81C21.5928 33.7295 21.4162 33.6115 21.2674 33.4627C21.1187 33.3139 21.0007 33.1373 20.9202 32.943C20.8397 32.7486 20.7982 32.5403 20.7982 32.3299C20.7982 32.1195 20.8397 31.9112 20.9202 31.7168C21.0007 31.5225 21.1187 31.3458 21.2674 31.1971L28.6498 23.8179L34.9218 28.5219L40.3522 21.7315C40.4793 21.5563 40.6407 21.4087 40.8265 21.2976C41.0123 21.1865 41.2187 21.1143 41.4332 21.0854C41.6478 21.0564 41.8659 21.0713 42.0745 21.129C42.2831 21.1868 42.4779 21.2864 42.6469 21.4216C42.8159 21.5568 42.9558 21.7249 43.0579 21.9158C43.1601 22.1066 43.2225 22.3162 43.2413 22.5318C43.2601 22.7475 43.235 22.9647 43.1674 23.1704C43.0999 23.376 42.9913 23.5658 42.8482 23.7283L35.4818 32.9411L28.9506 28.0419L23.533 33.4595V33.4627Z"
        fill="currentColor" />
</svg>