<svg width="65" height="65" viewBox="0 0 65 65" fill="none" xmlns="http://www.w3.org/2000/svg">
    <path
        d="M21.2711 24.3094V14.6848C21.2711 14.2594 21.4401 13.8514 21.7409 13.5505C22.0418 13.2497 22.4498 13.0807 22.8752 13.0807C23.3006 13.0807 23.7086 13.2497 24.0095 13.5505C24.3103 13.8514 24.4793 14.2594 24.4793 14.6848V24.3094C24.4793 24.7348 24.3103 25.1428 24.0095 25.4436C23.7086 25.7445 23.3006 25.9135 22.8752 25.9135C22.4498 25.9135 22.0418 25.7445 21.7409 25.4436C21.4401 25.1428 21.2711 24.7348 21.2711 24.3094ZM50.1448 14.6848V51.579C50.1448 52.0044 49.9758 52.4124 49.675 52.7133C49.3742 53.0141 48.9662 53.1831 48.5407 53.1831C48.1153 53.1831 47.7073 53.0141 47.4065 52.7133C47.1056 52.4124 46.9366 52.0044 46.9366 51.579V41.9544H37.3121C36.8866 41.9544 36.4786 41.7854 36.1778 41.4846C35.877 41.1838 35.708 40.7758 35.708 40.3503C35.7824 36.5079 36.2678 32.6844 37.1557 28.9452C39.1167 20.8265 42.8342 15.3846 47.9091 13.211C48.153 13.1066 48.4191 13.0642 48.6834 13.0878C48.9477 13.1114 49.202 13.2002 49.4236 13.3463C49.6451 13.4923 49.827 13.691 49.9529 13.9247C50.0787 14.1583 50.1447 14.4194 50.1448 14.6848ZM46.9366 17.4719C40.4862 22.3985 39.2229 34.3991 38.9763 38.7462H46.9366V17.4719ZM30.8736 14.4221C30.8422 14.2115 30.7692 14.0092 30.6588 13.8271C30.5483 13.645 30.4028 13.4867 30.2306 13.3615C30.0583 13.2362 29.8629 13.1465 29.6556 13.0976C29.4484 13.0487 29.2334 13.0415 29.0234 13.0765C28.8133 13.1115 28.6123 13.188 28.4321 13.3015C28.2519 13.415 28.0961 13.5633 27.9739 13.7376C27.8516 13.9119 27.7652 14.1089 27.7198 14.317C27.6744 14.525 27.6709 14.7401 27.7095 14.9495L29.2916 24.4357C29.2916 26.1374 28.6156 27.7695 27.4123 28.9728C26.209 30.1761 24.5769 30.8521 22.8752 30.8521C21.1735 30.8521 19.5414 30.1761 18.3381 28.9728C17.1348 27.7695 16.4588 26.1374 16.4588 24.4357L18.0389 14.9495C18.0774 14.7401 18.0739 14.525 18.0286 14.317C17.9832 14.1089 17.8968 13.9119 17.7745 13.7376C17.6522 13.5633 17.4965 13.415 17.3163 13.3015C17.1361 13.188 16.9351 13.1115 16.725 13.0765C16.515 13.0415 16.3 13.0487 16.0928 13.0976C15.8855 13.1465 15.6901 13.2362 15.5178 13.3615C15.3456 13.4867 15.2 13.645 15.0896 13.8271C14.9792 14.0092 14.9062 14.2115 14.8748 14.4221L13.2707 24.0467C13.257 24.1336 13.2502 24.2214 13.2506 24.3094C13.2538 26.5828 14.0605 28.7819 15.5282 30.5182C16.9958 32.2544 19.0299 33.4159 21.2711 33.7976V51.579C21.2711 52.0044 21.4401 52.4124 21.7409 52.7133C22.0418 53.0141 22.4498 53.1831 22.8752 53.1831C23.3006 53.1831 23.7086 53.0141 24.0095 52.7133C24.3103 52.4124 24.4793 52.0044 24.4793 51.579V33.7976C26.7205 33.4159 28.7546 32.2544 30.2222 30.5182C31.6899 28.7819 32.4966 26.5828 32.4998 24.3094C32.4995 24.2214 32.4921 24.1335 32.4777 24.0467L30.8736 14.4221Z"
        fill="currentColor" />
</svg>