<svg width="64" height="65" viewBox="0 0 64 65" fill="none" xmlns="http://www.w3.org/2000/svg">
    <path
        d="M53.2759 48.7299C50.5338 43.9173 46.2521 40.1674 41.1199 38.0839C43.6721 36.1698 45.5573 33.5012 46.5085 30.456C47.4597 27.4109 47.4287 24.1437 46.4199 21.1172C45.4111 18.0907 43.4756 15.4584 40.8875 13.593C38.2995 11.7277 35.1901 10.7239 31.9999 10.7239C28.8097 10.7239 25.7004 11.7277 23.1123 13.593C20.5243 15.4584 18.5888 18.0907 17.5799 21.1172C16.5711 24.1437 16.5401 27.4109 17.4913 30.456C18.4425 33.5012 20.3277 36.1698 22.8799 38.0839C17.7478 40.1674 13.466 43.9173 10.7239 48.7299C10.554 49.0031 10.4408 49.3077 10.3909 49.6255C10.3411 49.9434 10.3556 50.268 10.4338 50.5801C10.5119 50.8922 10.652 51.1854 10.8457 51.4423C11.0394 51.6992 11.2827 51.9145 11.5613 52.0755C11.8399 52.2364 12.148 52.3397 12.4673 52.3792C12.7866 52.4187 13.1106 52.3936 13.42 52.3054C13.7294 52.2172 14.0179 52.0677 14.2683 51.8657C14.5188 51.6638 14.7261 51.4136 14.8779 51.1299C18.5019 44.8659 24.9019 41.1299 31.9999 41.1299C39.0979 41.1299 45.4979 44.8679 49.1219 51.1299C49.451 51.659 49.9728 52.0393 50.5772 52.1906C51.1816 52.3419 51.8211 52.2522 52.3606 51.9405C52.9 51.6289 53.2972 51.1196 53.468 50.5205C53.6388 49.9213 53.5699 49.2792 53.2759 48.7299ZM21.5999 25.9299C21.5999 23.873 22.2099 21.8622 23.3526 20.152C24.4954 18.4417 26.1197 17.1087 28.02 16.3216C29.9204 15.5344 32.0115 15.3284 34.0289 15.7297C36.0463 16.131 37.8994 17.1215 39.3538 18.576C40.8083 20.0305 41.7988 21.8836 42.2001 23.901C42.6014 25.9184 42.3954 28.0095 41.6083 29.9098C40.8211 31.8102 39.4881 33.4344 37.7778 34.5772C36.0676 35.7199 34.0568 36.3299 31.9999 36.3299C29.2426 36.3267 26.5992 35.23 24.6495 33.2803C22.6998 31.3306 21.6031 28.6872 21.5999 25.9299Z"
        fill="currentColor" />
</svg>