<svg width="64" height="65" viewBox="0 0 64 65" fill="none" xmlns="http://www.w3.org/2000/svg">
    <path
        d="M51.2001 32.3299C51.2001 42.3865 51.2 47.4147 48.3883 50.5379C45.5766 53.6633 41.0497 53.6633 32 53.6633C22.9483 53.6633 18.4235 53.6633 15.6118 50.5379C12.8 47.4169 12.8 42.3865 12.8 32.3299C12.8 22.2734 12.8 17.2451 15.6118 14.1198C18.4235 10.9966 22.9504 10.9966 32 10.9966C41.0518 10.9966 45.5766 10.9966 48.3883 14.1198C50.2571 16.1977 50.8843 19.1182 51.0934 23.7966"
        stroke="currentColor" stroke-width="4" stroke-linecap="round" />
    <path
        d="M21.3337 23.7966C21.3337 22.8046 21.3337 22.3097 21.4425 21.9022C21.588 21.36 21.8735 20.8657 22.2705 20.4688C22.6674 20.0719 23.1617 19.7863 23.7039 19.6409C24.1156 19.5299 24.6105 19.5299 25.6004 19.5299H38.4004C39.3924 19.5299 39.8873 19.5299 40.2948 19.6387C40.837 19.7842 41.3313 20.0697 41.7282 20.4666C42.1251 20.8636 42.4107 21.3579 42.5561 21.9001C42.6671 22.3118 42.6671 22.8067 42.6671 23.7966C42.6671 24.7865 42.6671 25.2835 42.5583 25.691C42.4128 26.2331 42.1273 26.7275 41.7303 27.1244C41.3334 27.5213 40.8391 27.8068 40.2969 27.9523C39.8873 28.0633 39.3903 28.0633 38.4004 28.0633H25.6004C24.6084 28.0633 24.1135 28.0633 23.706 27.9545C23.1639 27.809 22.6695 27.5235 22.2726 27.1265C21.8757 26.7296 21.5902 26.2353 21.4447 25.6931C21.3337 25.2814 21.3337 24.7865 21.3337 23.7966Z"
        stroke="currentColor" stroke-width="4" />
    <path
        d="M23.4671 36.5966C24.6453 36.5966 25.6004 35.6415 25.6004 34.4632C25.6004 33.285 24.6453 32.3299 23.4671 32.3299C22.2889 32.3299 21.3337 33.285 21.3337 34.4632C21.3337 35.6415 22.2889 36.5966 23.4671 36.5966Z"
        fill="currentColor" />
    <path
        d="M23.4671 45.1299C24.6453 45.1299 25.6004 44.1748 25.6004 42.9966C25.6004 41.8184 24.6453 40.8633 23.4671 40.8633C22.2889 40.8633 21.3337 41.8184 21.3337 42.9966C21.3337 44.1748 22.2889 45.1299 23.4671 45.1299Z"
        fill="currentColor" />
    <path
        d="M32.0003 36.5966C33.1785 36.5966 34.1336 35.6415 34.1336 34.4632C34.1336 33.285 33.1785 32.3299 32.0003 32.3299C30.8221 32.3299 29.8669 33.285 29.8669 34.4632C29.8669 35.6415 30.8221 36.5966 32.0003 36.5966Z"
        fill="currentColor" />
    <path
        d="M32.0003 45.1299C33.1785 45.1299 34.1336 44.1748 34.1336 42.9966C34.1336 41.8184 33.1785 40.8633 32.0003 40.8633C30.8221 40.8633 29.8669 41.8184 29.8669 42.9966C29.8669 44.1748 30.8221 45.1299 32.0003 45.1299Z"
        fill="currentColor" />
    <path
        d="M40.5334 36.5966C41.7116 36.5966 42.6667 35.6414 42.6667 34.4632C42.6667 33.285 41.7116 32.3299 40.5334 32.3299C39.3552 32.3299 38.4 33.285 38.4 34.4632C38.4 35.6414 39.3552 36.5966 40.5334 36.5966Z"
        fill="currentColor" />
    <path
        d="M40.5334 45.1299C41.7116 45.1299 42.6667 44.1748 42.6667 42.9966C42.6667 41.8184 41.7116 40.8632 40.5334 40.8632C39.3552 40.8632 38.4 41.8184 38.4 42.9966C38.4 44.1748 39.3552 45.1299 40.5334 45.1299Z"
        fill="currentColor" />
</svg>