<svg width="70" height="70" viewBox="0 0 70 70" fill="none" xmlns="http://www.w3.org/2000/svg">
    <path fill-rule="evenodd" clip-rule="evenodd"
        d="M0.567748 38.4221C1.45473 46.8923 5.10988 54.0011 11.3902 60.119L11.3935 60.1158C12.5 59.0037 13.5998 57.9018 14.6935 56.806C15.4829 56.0151 16.2691 55.2273 17.0524 54.4413L14.1259 50.6871C13.9013 50.3653 13.6921 50.0765 13.4972 49.8074C13.1056 49.2668 12.7715 48.8055 12.4852 48.3153C9.53829 43.2663 8.2062 37.873 8.83651 31.9987C10.3928 17.4529 23.2557 6.97802 37.7041 8.55705C54.3066 10.3733 64.9731 26.6021 60.0508 42.5548C56.7141 53.3773 46.4732 60.9475 35.0009 61.0158C30.5518 61.0444 26.1028 61.0427 21.6537 61.0411C18.5228 61.04 15.3919 61.0389 12.261 61.0482H12.2448C11.6813 61.0482 10.9354 61.0482 10.5942 61.3796C8.55997 63.3384 6.57447 65.3478 4.48657 67.4609C3.88005 68.0748 3.26488 68.6974 2.63737 69.33H4.23915C6.98914 69.3291 9.73936 69.3294 12.4897 69.3297C20.1895 69.3304 27.8901 69.3312 35.589 69.3073C37.0965 69.304 38.6203 69.187 40.1116 68.9499C59.0924 65.9413 71.9228 48.6987 69.2878 29.7732C66.3734 8.83646 45.1866 -4.66971 24.9387 1.50343C8.88848 6.3932 -1.18997 21.6474 0.567748 38.4221Z"
        fill="#06C16A" />
    <path
        d="M20.7962 43.4288C18.8532 45.9793 16.4652 48.1919 14.1259 50.6871L17.0524 54.4413C18.9534 52.5334 20.837 50.6353 22.7066 48.7247C24.4806 46.9118 26.5729 46.0605 29.0974 46.0703C30.2183 46.0735 31.3912 45.9955 32.4569 45.6739C38.2564 43.9226 41.5574 39.7347 43.3509 34.1723C43.6173 33.3503 43.6888 32.4666 43.9292 31.18C40.9758 33.802 38.3929 36.0925 35.8131 38.3896C35.0789 39.0459 34.3413 39.8906 33.3374 38.8899C32.2587 37.8112 33.1782 37.0575 33.8897 36.3037C36.5312 33.5128 39.1726 30.7186 41.8173 27.931C42.4619 27.2516 42.6806 27.1234 41.8173 26.3487C41.0692 25.6774 41.1178 25.3359 40.1051 26.3487C39.0923 27.3614 38.1102 28.1681 37.1258 29.0974C35.1568 30.9591 33.2367 32.8695 31.1865 34.6337C30.9716 34.8192 30.6161 34.84 30.2296 34.8246C29.6769 34.8024 29.1843 34.3275 29.1596 33.775C29.1445 33.439 29.1526 33.11 29.2404 32.8045C29.3768 32.3366 29.8379 31.8853 30.1986 31.4792C32.2974 29.1107 34.4745 26.8458 36.6969 24.3408C29.0779 24.4513 22.0178 31.6706 21.9236 38.9841C21.9041 40.4917 21.6539 42.3014 20.7962 43.4288Z"
        fill="black" />
</svg>